HIERARCHY
ROOT Hips
{
	OFFSET	0.00	0.00	0.00
	CHANNELS 6 Xposition Yposition Zposition Zrotation Xrotation Yrotation
	JOINT LeftUpLeg
	{
		OFFSET	 0.126116	-0.065224	 0.014019
		CHANNELS 3 Zrotation Xrotation Yrotation
		JOINT LeftLeg
		{
			OFFSET	 0.000000	 0.569914	 0.000000
			CHANNELS 3 Zrotation Xrotation Yrotation
			JOINT LeftFoot
			{
				OFFSET	 0.000000	 0.544423	 0.000000
				CHANNELS 3 Zrotation Xrotation Yrotation
				JOINT LeftToeBase
				{
					OFFSET	 0.000000	 0.207117	 0.000000
					CHANNELS 3 Zrotation Xrotation Yrotation
					End Site
					{
						OFFSET	 0.000000	 0.207117	 0.000000
					}
				}
			}
		}
	}
	JOINT RightUpLeg
	{
		OFFSET	-0.124023	-0.065224	 0.008373
		CHANNELS 3 Zrotation Xrotation Yrotation
		JOINT RightLeg
		{
			OFFSET	 0.000000	 0.570047	 0.000000
			CHANNELS 3 Zrotation Xrotation Yrotation
			JOINT RightFoot
			{
				OFFSET	 0.000000	 0.544354	 0.000000
				CHANNELS 3 Zrotation Xrotation Yrotation
				JOINT RightToeBase
				{
					OFFSET	 0.000000	 0.207540	 0.000000
					CHANNELS 3 Zrotation Xrotation Yrotation
					End Site
					{
						OFFSET	 0.000000	 0.207540	 0.000000
					}
				}
			}
		}
	}
	JOINT Spine
	{
		OFFSET	 0.000184	 0.117403	 0.007763
		CHANNELS 3 Zrotation Xrotation Yrotation
		JOINT Spine1
		{
			OFFSET	 0.000000	 0.137269	 0.000000
			CHANNELS 3 Zrotation Xrotation Yrotation
			JOINT Spine2
			{
				OFFSET	 0.000000	 0.156879	 0.000000
				CHANNELS 3 Zrotation Xrotation Yrotation
				JOINT LeftShoulder
				{
					OFFSET	 0.080501	 0.160143	 0.002496
					CHANNELS 3 Zrotation Xrotation Yrotation
					JOINT LeftArm
					{
						OFFSET	 0.000000	 0.164363	 0.000000
						CHANNELS 3 Zrotation Xrotation Yrotation
						JOINT LeftForeArm
						{
							OFFSET	 0.000000	 0.364576	 0.000000
							CHANNELS 3 Zrotation Xrotation Yrotation
							JOINT LeftHand
							{
								OFFSET	 0.000000	 0.360812	 0.000000
								CHANNELS 3 Zrotation Xrotation Yrotation
								JOINT LeftHandIndex1
								{
									OFFSET	 0.000000	 0.086006	 0.000000
									CHANNELS 3 Zrotation Xrotation Yrotation
									JOINT LeftHandIndex2
									{
										OFFSET	 0.000000	 0.047237	 0.000000
										CHANNELS 3 Zrotation Xrotation Yrotation
										JOINT LeftHandIndex3
										{
											OFFSET	-0.004284	 0.038165	 0.000551
											CHANNELS 3 Zrotation Xrotation Yrotation
											End Site
											{
												OFFSET	-0.004284	 0.038165	 0.000551
											}
										}
									}
								}
							}
						}
					}
				}
				JOINT Neck
				{
					OFFSET	 0.000000	 0.176489	 0.000000
					CHANNELS 3 Zrotation Xrotation Yrotation
					JOINT Head
					{
						OFFSET	 0.000000	 0.077941	 0.001747
						CHANNELS 3 Zrotation Xrotation Yrotation
						End Site
						{
							OFFSET	 0.000000	 0.077941	 0.001747
						}
					}
				}
				JOINT RightShoulder
				{
					OFFSET	-0.080363	 0.159706	-0.000306
					CHANNELS 3 Zrotation Xrotation Yrotation
					JOINT RightArm
					{
						OFFSET	 0.000000	 0.164196	 0.000000
						CHANNELS 3 Zrotation Xrotation Yrotation
						JOINT RightForeArm
						{
							OFFSET	 0.000000	 0.365611	 0.000000
							CHANNELS 3 Zrotation Xrotation Yrotation
							JOINT RightHand
							{
								OFFSET	 0.000000	 0.360648	 0.000000
								CHANNELS 3 Zrotation Xrotation Yrotation
								JOINT RightHandIndex1
								{
									OFFSET	 0.000000	 0.069977	 0.000000
									CHANNELS 3 Zrotation Xrotation Yrotation
									JOINT RightHandIndex2
									{
										OFFSET	 0.000000	 0.052305	 0.000000
										CHANNELS 3 Zrotation Xrotation Yrotation
										JOINT RightHandIndex3
										{
											OFFSET	 0.009002	 0.042196	 0.000782
											CHANNELS 3 Zrotation Xrotation Yrotation
											End Site
											{
												OFFSET	 0.009002	 0.042196	 0.000782
											}
										}
									}
								}
							}
						}
					}
				}
			}
		}
	}
}
MOTION
Frames:    8
Frame Time: 0.03333334
 0.436619	 1.273884	 0.406556	 0.529817	-2.356329	-177.254800	 178.682800	 6.666605	-1.523140	 3.490396	-12.907640	 5.981825	 5.591731	 69.946190	-1.685840	 1.292262	 28.425850	-2.713146	 178.581300	 8.014482	 3.145010	-2.232664	-11.457750	 0.813057	 1.132080	 67.096250	-5.932909	-1.288183	 28.361890	 2.710176	-0.096980	 6.513119	-2.059325	 0.625840	-6.615534	-1.137856	 0.002769	 7.636188	 2.913785	-117.459200	-0.779897	 89.958420	 2.651973	-0.464036	-7.597047	 27.269180	-2.135165	 35.223780	-11.578270	 7.734501	-4.658391	-6.580301	 5.266122	 0.000000	 0.000000	 0.000000	 0.000000	 0.000000	 0.000000	 0.000000	 4.795020	 27.116100	 1.713064	-3.985862	-16.168640	 0.851801	 116.287700	-0.440213	-90.569100	-5.403412	 2.998777	 19.879730	-17.629940	 0.413998	-57.140320	-8.838317	-7.601946	 10.306200	 15.208500	 5.323790	 0.000000	 0.000000	 0.000000	 0.000000	 0.000000	 0.000000	 0.000000
 0.436665	 1.273990	 0.407366	 0.535727	-2.541055	-177.236700	 178.684600	 6.884130	-1.489284	 3.480276	-12.871470	 6.024346	 5.691325	 69.868350	-1.790738	 1.292262	 28.425850	-2.713146	 178.571400	 8.202196	 3.150852	-2.215665	-11.372910	 0.751014	 0.960169	 67.001570	-5.760929	-1.288183	 28.361890	 2.710176	-0.120535	 6.569007	-2.044746	 0.633872	-6.854655	-1.145049	 0.009399	 8.001858	 2.903322	-117.653000	-0.838963	 89.932030	 2.453151	-0.351687	-7.121812	 28.089280	-2.194235	 34.728350	-11.479190	 7.986700	-4.159502	-6.580301	 5.266122	 0.000000	 0.000000	 0.000000	 0.000000	 0.000000	 0.000000	 0.000000	 4.930254	 27.540150	 1.600726	-4.000782	-16.380370	 0.874559	 116.593300	-0.524520	-90.539920	-5.187127	 3.113134	 19.658120	-18.588530	 0.435723	-56.747560	-8.905766	-6.818639	 9.490667	 15.208500	 5.323790	 0.000000	 0.000000	 0.000000	 0.000000	 0.000000	 0.000000	 0.000000
 0.436733	 1.274109	 0.409547	 0.555636	-2.974504	-177.194600	 178.681800	 7.464866	-1.408779	 3.490462	-12.907860	 6.131543	 5.923599	 69.738520	-2.048232	 1.292262	 28.425850	-2.713146	 178.558600	 8.702777	 3.162469	-2.196219	-11.275660	 0.602275	 0.579034	 66.820720	-5.366818	-1.288183	 28.361890	 2.710176	-0.139078	 6.839979	-2.011678	 0.600338	-7.544336	-1.164370	 0.047922	 8.924308	 2.880667	-118.110300	-0.977999	 89.868880	 1.908226	 0.167473	-5.922124	 30.280610	-2.349656	 33.619200	-11.514290	 8.452455	-3.101461	-6.580301	 5.266122	 0.000000	 0.000000	 0.000000	 0.000000	 0.000000	 0.000000	 0.000000	 5.255347	 28.540130	 1.329270	-4.035887	-16.879630	 0.929479	 117.314600	-0.722865	-90.469210	-4.662817	 3.648407	 19.106720	-20.991170	 0.489645	-55.891980	-8.795314	-5.102849	 7.659735	 15.208500	 5.323790	 0.000000	 0.000000	 0.000000	 0.000000	 0.000000	 0.000000	 0.000000
 0.436755	 1.274073	 0.412015	 0.582405	-3.398117	-177.152300	 178.670500	 8.114928	-1.326969	 3.539799	-13.083850	 6.245350	 6.151004	 69.671570	-2.314892	 1.292262	 28.425850	-2.713146	 178.557800	 9.261721	 3.172691	-2.200630	-11.297610	 0.453470	 0.231335	 66.690770	-4.991871	-1.288183	 28.361890	 2.710176	-0.150732	 7.115317	-1.977145	 0.564980	-8.067841	-1.185076	 0.087829	 9.762368	 2.860646	-118.561600	-1.114622	 89.805520	 1.398564	 0.946798	-4.630526	 32.534560	-2.505914	 32.593070	-11.800710	 8.692254	-2.209648	-6.580301	 5.266122	 0.000000	 0.000000	 0.000000	 0.000000	 0.000000	 0.000000	 0.000000	 5.584659	 29.525770	 1.052358	-4.070374	-17.371660	 0.985340	 118.026600	-0.917667	-90.397000	-4.258754	 4.447536	 18.521810	-23.283120	 0.540308	-55.139220	-8.431360	-3.660736	 5.946843	 15.208500	 5.323790	 0.000000	 0.000000	 0.000000	 0.000000	 0.000000	 0.000000	 0.000000
 0.436739	 1.273868	 0.415420	 0.622925	-3.919103	-177.099900	 178.648000	 8.996200	-1.223811	 3.638647	-13.435730	 6.393941	 6.429839	 69.644880	-2.655339	 1.292262	 28.425850	-2.713146	 178.569000	 10.022510	 3.182995	-2.230111	-11.444970	 0.268225	-0.169142	 66.577420	-4.543204	-1.288183	 28.361890	 2.710176	-0.158611	 7.465299	-1.931014	 0.520469	-8.533009	-1.210524	 0.138620	 10.715640	 2.838537	-119.120200	-1.283003	 89.725630	 0.994144	 2.151783	-2.902062	 35.090250	-2.678321	 31.393210	-12.321230	 8.665730	-1.293013	-6.580301	 5.266122	 0.000000	 0.000000	 0.000000	 0.000000	 0.000000	 0.000000	 0.000000	 6.004508	 30.743750	 0.696644	-4.112829	-17.979740	 1.056735	 118.907900	-1.157461	-90.304300	-4.072469	 5.666410	 17.751340	-25.684920	 0.592428	-54.323510	-7.794597	-2.269980	 3.923476	 15.208500	 5.323790	 0.000000	 0.000000	 0.000000	 0.000000	 0.000000	 0.000000	 0.000000
 0.436692	 1.273475	 0.419830	 0.678248	-4.537159	-177.036400	 178.614100	 10.110400	-1.097547	 3.786239	-13.959010	 6.577686	 6.759983	 69.651550	-3.067985	 1.292262	 28.425850	-2.713146	 178.592400	 10.989330	 3.193460	-2.285038	-11.719090	 0.048142	-0.616955	 66.477170	-4.026241	-1.288183	 28.361890	 2.710176	-0.161888	 7.897037	-1.871800	 0.469540	-8.883581	-1.239426	 0.199417	 11.759750	 2.815415	-119.786600	-1.482689	 89.628210	 1.027282	 3.769045	-0.725640	 37.436350	-2.831852	 30.030780	-12.955110	 8.228700	-0.440223	-6.580301	 5.266122	 0.000000	 0.000000	 0.000000	 0.000000	 0.000000	 0.000000	 0.000000	 6.524123	 32.193340	 0.252515	-4.163110	-18.703500	 1.145175	 119.959600	-1.441480	-90.188940	-4.443540	 7.259225	 16.812000	-27.633330	 0.633991	-53.502520	-6.970642	-1.152594	 1.640300	 15.208500	 5.323790	 0.000000	 0.000000	 0.000000	 0.000000	 0.000000	 0.000000	 0.000000
 0.436653	 1.272951	 0.425105	 0.744803	-5.242869	-176.962800	 178.572300	 11.403720	-0.950980	 3.959959	-14.571810	 6.789047	 7.131127	 69.652730	-3.531625	 1.292262	 28.425850	-2.713146	 178.621900	 12.119930	 3.203887	-2.353440	-12.059550	-0.199129	-1.105122	 66.362000	-3.456094	-1.288183	 28.361890	 2.710176	-0.163571	 8.405491	-1.797911	 0.419122	-9.096388	-1.268496	 0.266358	 12.870050	 2.792769	-120.549900	-1.709903	 89.513850	 1.870384	 5.641747	 1.749601	 38.945550	-2.928163	 28.526380	-13.444320	 7.410314	 0.255375	-6.580301	 5.266122	 0.000000	 0.000000	 0.000000	 0.000000	 0.000000	 0.000000	 0.000000	 7.146241	 33.848680	-0.284454	-4.220181	-19.530350	 1.250805	 121.164400	-1.763981	-90.050470	-5.713279	 9.011248	 15.816800	-28.508520	 0.652349	-52.742920	-6.183284	-0.421832	-0.761051	 15.208500	 5.323790	 0.000000	 0.000000	 0.000000	 0.000000	 0.000000	 0.000000	 0.000000
 0.436707	 1.272425	 0.431035	 0.815324	-6.049372	-176.878400	 178.526100	 12.821240	-0.784413	 4.122816	-15.143100	 7.020616	 7.539992	 69.581920	-4.026781	 1.292262	 28.425850	-2.713146	 178.644400	 13.372240	 3.228853	-2.416585	-12.358820	-0.482434	-1.641738	 66.178350	-2.837811	-1.288183	 28.361890	 2.710176	-0.172277	 8.992026	-1.706753	 0.378675	-9.228222	-1.297531	 0.334671	 14.084890	 2.771976	-121.419500	-1.966650	 89.379990	 3.757647	 7.497529	 4.272537	 39.271110	-2.948643	 26.866440	-13.477100	 6.535432	 0.738764	-6.580301	 5.266122	 0.000000	 0.000000	 0.000000	 0.000000	 0.000000	 0.000000	 0.000000	 7.892724	 35.726090	-0.935621	-4.284433	-20.468860	 1.376698	 122.537000	-2.127406	-89.884630	-8.066364	 10.587530	 14.935940	-28.027760	 0.642345	-52.078330	-5.724608	 0.131376	-3.127968	 15.208500	 5.323790	 0.000000	 0.000000	 0.000000	 0.000000	 0.000000	 0.000000	 0.000000
